<svg width="1800" height="454" viewBox="0 0 1800 454" fill="none" xmlns="http://www.w3.org/2000/svg">
    <path fill-rule="evenodd" clip-rule="evenodd" d="M1595.9 303.242C1592.96 302.255 1591.18 297.551 1589.3 294.6C1581.45 282.262 1579.63 283.606 1585.04 274.734L1737.76 20.1045C1740.17 16.1286 1748.35 5.0278 1747.83 0.926584C1744.12 -0.158946 1733.97 0.291093 1729.73 0.534312C1724.04 8.07467 1714.3 24.7146 1709.58 33.2984C1703.22 44.8903 1696.19 55.5133 1689.95 66.1375L1631.01 164.749C1624.58 175.554 1618.26 187.438 1611.41 197.581C1603.44 209.363 1576.87 259.165 1571.76 262.95C1569.61 262.387 1569.62 261.895 1568.26 259.767C1555.78 240.245 1555.1 245.026 1563.42 230.283C1566.68 224.505 1570.07 218.958 1573.42 213.687C1583.64 197.614 1592.53 180.876 1602.84 164.683L1622.23 132.262C1641.74 98.1633 1661.51 67.4495 1680.93 34.1378C1682.62 31.2347 1699.17 5.45699 1699.25 2.5632L1699.04 1.42453C1699.03 1.1166 1698.95 1.02707 1698.86 0.843932C1695.77 -0.116811 1690.83 0.370811 1687.1 0.354057C1681.08 0.326327 1681.39 0.31651 1679 4.48936L1652.83 48.0896C1641.16 67.6794 1629.36 86.777 1617.71 106.646L1582.57 165.206C1581.1 167.986 1549.84 222.081 1546.94 223.128C1543.99 221.222 1531.46 198.623 1528.86 194.185L1493.83 135.517C1487.67 125.091 1482.27 116.341 1476.43 106.422C1458.73 76.4041 1440.98 48.6928 1423.66 18.3112C1414.44 2.11321 1415.21 0.139138 1406.1 0.301476C1402.56 0.364447 1397.91 -0.0405189 1394.99 0.820857C1394.54 1.74983 1394.63 -0.219638 1394.55 2.59847L1479.12 144.717C1484.56 153.998 1490.52 163.275 1496.13 172.914C1508.63 194.407 1518.65 210.531 1530.24 229.82C1548.2 259.7 1563.73 286.744 1581.6 315.385C1583.66 318.678 1583.2 319.735 1588.48 319.858C1608.08 320.312 1605.61 321.87 1612.49 309.714C1623.3 290.632 1635.95 271.835 1646.57 252.709C1649.17 248.041 1652.23 243.068 1655.26 238.165L1680.86 196.319C1680.93 196.066 1681.13 196.061 1681.28 195.941C1682.7 201.928 1681.9 220.306 1681.9 227.92V324.403C1681.9 338.125 1680.45 448.854 1682.65 451.694C1684.01 453.203 1699.91 453.525 1701.39 452.189C1703.52 448.22 1702.19 414.489 1702.16 407.01L1702.13 179.018C1702.14 173.269 1701.09 161.491 1703.28 157.286L1720.4 128.544C1722.1 125.748 1726.59 116.053 1729.65 115.919C1730.89 127.778 1730 145.465 1729.92 157.87C1729.83 171.965 1729.88 186.068 1729.9 200.165C1729.95 228.014 1729.4 256.305 1729.94 284.092C1730.3 301.934 1728.74 448.852 1730.79 451.853C1732.6 453.758 1738.1 452.785 1740.78 452.788C1754.81 452.802 1750.87 453.312 1750.87 424.853V91.7858C1750.87 77.5596 1749.74 79.8069 1756.25 69.3242L1772.06 43.3183C1773.62 40.7041 1775.08 36.719 1777.85 35.4821C1780.51 44.7291 1775.89 448.442 1779.01 451.92C1781.54 453.379 1795.72 453.449 1798.46 452.19C1800 450.859 1799.46 447.521 1799.44 445.343C1798.75 372.44 1799.58 299.5 1799.31 226.599L1799.34 28.345C1799.34 0.412393 1803.61 0.367313 1788.4 0.379445C1784.95 0.382334 1781.59 0.307797 1778.15 0.555638C1775.94 1.64117 1746.6 52.8113 1743.65 57.5821C1739.44 64.3876 1736.25 70.1087 1732.44 76.2955C1717.01 101.376 1702.48 126.829 1687.16 151.95C1671.07 178.328 1656.95 202.375 1641.58 228.008C1633.99 240.673 1626.02 253.024 1618.93 265.818C1615.29 272.376 1611.56 277.795 1607.52 284.94C1605.51 288.488 1598.35 301.694 1595.9 303.243L1595.9 303.242Z" fill="#F2F2F2"/>
    <path fill-rule="evenodd" clip-rule="evenodd" d="M328.555 452.972L329.618 451.386L328.954 448.983C321.856 435.016 313.388 421.692 305.671 407.553C302.097 401.002 297.781 393.249 294.087 386.597C283.203 367.005 269.466 344.142 259.043 324.645L241.677 293.499C239.816 290.435 236.531 286.097 236.606 282.769C239.063 281.159 247.305 281.285 250.976 280.517C254.786 279.72 261.276 277.72 264.59 278.275C268.864 285.038 273.039 292.999 277.164 300.193C289.022 320.881 302.356 346.443 314.011 365.666C319.326 374.432 361.57 451.395 363.33 452.414C367.568 453.098 381.055 453.105 385.271 452.388C385.626 449.061 381.519 443.192 379.81 440.242L335.761 361.414C322.113 338.913 305.554 307.072 291.593 282.66C286.927 274.502 282.961 272.089 290.112 268.912C306.683 261.548 327.207 245.426 337.869 232.01C345.197 222.787 350.157 216.655 356.1 204.993C374.197 169.478 376.254 130.055 363.005 93.3811C356.053 74.1357 341.93 51.9455 326.845 39.1063C318.095 31.6596 304.293 20.6801 293.716 15.573C256.672 -2.31134 225.629 0.39817 183.504 0.380838C153.098 0.367551 122.689 0.285521 92.2883 0.30112C90.7619 0.302275 3.38262 -0.456886 1.53124 1.05384C-1.10798 4.33239 0.475323 48.474 0.478842 56.7602C0.485295 75.6914 0.536897 94.6562 0.355044 113.594C-0.00514241 151.144 0.476477 189.011 0.474718 226.599C0.472958 264.274 0.474718 301.932 0.474718 339.604C0.474718 352.131 -0.993589 448.763 1.23441 451.746C3.1421 453.545 8.05154 452.785 11.1331 452.788C21.6835 452.795 21.494 453.66 21.4119 445.345C21.3902 443.14 21.3996 440.935 21.3996 438.731C21.3996 434.325 21.3996 429.919 21.3996 425.514L21.3802 236.512C21.1772 200.416 21.2635 164.231 21.3556 128.133C21.3861 116.395 20.2058 24.2816 22.1944 21.3641C23.8704 20.1035 201.88 20.9291 219.722 20.9169C253.878 20.8927 273.892 27.0459 297.027 42.066C340.491 70.2869 362.069 127.941 344.296 178.189C340.429 189.122 334.21 203.128 327.73 210.76C319.981 219.889 315.542 227.566 304.099 235.716C281.287 251.964 262.496 260.936 231.795 261.603C218.502 261.892 139.181 260.147 134.063 262.457C132.7 265.781 132.278 279.155 134.669 281.34C137.753 283.857 149.171 281.648 153.962 282.303C157.85 282.832 160.398 289.314 162.43 292.958C167.113 301.358 171.523 309.45 176.199 317.708L245.899 442.725C250.166 449.661 249.789 452.549 255.213 452.809C257.888 452.937 274.008 454.061 274.317 451.674L274.43 450.224C274.364 449.76 274.089 449.17 273.94 448.854L181.952 285.51C180.163 280.225 188.001 282.261 200.272 282.244C208.841 282.232 210.789 280.664 214.258 286.833L240.948 334.514C245.889 343.497 304.48 448.479 307.656 452.688L328.555 452.975L328.555 452.972Z" fill="#F2F2F2"/>
    <path fill-rule="evenodd" clip-rule="evenodd" d="M1082 368.019C1082.23 341.462 1080.86 121.37 1082.58 116.249C1085.87 115.287 1105.94 115.163 1109.26 116.389C1111.73 124.401 1107.33 449.03 1110.54 452.114C1113.52 453.595 1125.9 453.249 1129.97 452.424C1131.73 447.413 1130.52 380.33 1130.56 368.679L1130.56 125.488C1130.55 122.321 1129.97 118.252 1131.57 116.225C1135.33 113.319 1261.39 118.514 1263.14 114.477L1263.75 112.904C1263.85 112.405 1263.86 110.898 1263.86 110.324C1263.86 108.789 1263.82 107.209 1263.82 105.662C1263.81 102.493 1264.17 99.1566 1263.21 96.134C1258.25 93.9347 969.125 95.4916 926.947 95.2183C915.805 95.1461 904.571 95.2848 893.412 95.2848C883.244 95.2848 880.633 93.8803 880.255 98.3992C880.091 100.373 879.976 113.512 880.519 114.492C882.008 117.183 892.702 115.734 896.095 115.734C913.51 115.734 1011.28 114.99 1012.8 116.432C1015.37 118.872 1011.16 448.561 1014.14 451.907C1015.47 453.396 1032.06 453.402 1033.51 451.812C1034.92 450.261 1034.28 231.717 1034.17 199.503C1034.13 189.528 1032.87 119.291 1034.98 116.308C1037.4 114.995 1056.72 115.418 1060.56 116.099C1062 121.348 1061.12 149.945 1061.09 157.869C1060.91 200.425 1060.21 449.963 1061.89 451.784C1063.49 453.124 1063.78 452.789 1066.41 452.829C1075.5 452.967 1081.16 454.113 1081.91 449.932L1082 368.019L1082 368.019Z" fill="#F2F2F2"/>
    <path fill-rule="evenodd" clip-rule="evenodd" d="M1295.43 451.881C1298.66 453.697 1304.81 452.868 1308.85 452.839C1316.07 452.786 1316.06 453.052 1316 446.019C1315.91 437.002 1315.94 427.924 1315.98 418.905L1315.92 42.1813C1315.9 35.5092 1316.83 37.2401 1317.56 36.4503C1320.21 38.8583 1336.1 65.9104 1339.23 71.0931C1344.94 80.5295 1343.56 81.5833 1343.49 94.4282C1343.44 103.465 1343.43 112.488 1343.49 121.523C1344.05 222.303 1343.53 324.497 1343.52 425.513C1343.52 430.139 1343.52 434.764 1343.52 439.39C1343.52 441.599 1343.53 443.803 1343.5 446.012C1343.47 448.822 1343.16 450.753 1344.43 451.939C1346.68 453.395 1361.61 453.498 1363.65 451.766C1365.44 449.937 1364.6 413.258 1364.54 410.313C1364.26 396.36 1364.38 381.993 1364.49 368.019C1364.78 333.37 1363.46 119.521 1365.18 116.229C1367.85 117.304 1368.8 120.351 1370.36 123.036L1390.98 158.83C1392.81 166.219 1389.23 449.04 1391.96 451.947C1394.9 453.516 1408.78 453.478 1411.63 451.947C1414.42 449.144 1410.55 204.597 1412.76 196.813C1415.27 197.234 1415.29 198.238 1416.51 200.494C1417.29 201.923 1418.19 203.416 1418.96 204.684L1434.12 230.037C1441.16 241.209 1447.69 253.622 1454.47 264.207C1464.22 279.439 1475.52 300.5 1485.11 315.268C1488.05 319.784 1487.13 319.889 1493.94 319.851C1498.01 319.828 1503.13 320.199 1507.02 319.38C1507.46 316.388 1486.13 282.992 1483.05 277.645C1463.65 243.959 1440.95 207.816 1420.7 173.88L1320.91 7.85217C1317.87 2.98837 1318.56 0.43774 1311.56 0.347038C1307.57 0.295622 1299.03 -0.51199 1296.1 1.04842C1293.66 3.5898 1295 49.5974 1295 56.76C1295.01 75.69 1295.02 94.6553 1294.88 113.593C1294.59 151.177 1295 188.99 1295 226.598C1295 236.473 1294.21 448.152 1295.43 451.881L1295.43 451.881Z" fill="#F2F2F2"/>
    <path fill-rule="evenodd" clip-rule="evenodd" d="M49.3337 48.7815C47.7187 54.7522 49.1301 401.389 48.8726 444.682C48.818 453.747 46.7367 452.787 63.4472 452.785C71.5901 452.785 69.9083 453.19 69.9083 434.104V72.6204C69.9048 66.7167 70.8604 68.0923 87.0893 68.1287H225.759C256.962 68.1038 285.437 86.0373 295.245 110.485C299.663 121.496 302.54 127.066 302.558 141.349C302.611 180.958 269.974 214.69 225.759 214.69H147.286C131.248 214.698 133.457 212.167 133.457 229.242C133.457 232.033 133.789 232.693 134.668 234.361C156.539 235.084 228.883 235.594 244.196 233.333C286.154 227.138 322.968 190.2 323.092 141.349C323.184 105.319 303.177 79.8984 284.785 66.0101C274.87 58.5229 259.002 52.1796 244.845 49.3026C232.508 46.7953 158.737 48.0339 137.225 48.0044C125.308 47.9882 53.7715 47.1661 49.3337 48.782V48.7815Z" fill="#F2F2F2"/>
    <path fill-rule="evenodd" clip-rule="evenodd" d="M117.734 135.4C117.736 131.439 117.784 127.462 117.746 123.502C117.701 118.839 116.338 115.735 121.128 115.735H198.343C213.895 115.709 234.819 113.452 244.354 121.707C249.059 125.782 253.283 130.225 253.995 139.368C255.233 155.283 242.555 166.764 226.428 166.762C209.166 166.752 146.952 166.057 137.218 166.726C133.312 166.994 133.456 168.791 133.456 172.409C133.456 185.084 132.034 187.235 137.848 187.493C149.675 188.018 175.175 187.44 188.198 187.438C207.648 187.438 234.942 190.195 249.755 182.134C283.718 163.65 283.477 118.907 249.615 100.623C235.013 92.7379 207.657 95.2862 188.869 95.2862C179.473 95.2862 98.8977 94.7246 97.7966 95.7507C96.1048 99.2996 96.9601 113.867 96.9607 118.881C96.9219 226.93 97.4704 336.143 96.9577 444.019C96.9366 448.387 95.6208 452.786 100.336 452.786C120.264 452.786 117.871 454.051 117.799 445.346L117.79 407.672C117.808 354.666 118.409 297.9 117.79 245.103L117.733 135.402L117.734 135.4Z" fill="#F2F2F2"/>
    <path fill-rule="evenodd" clip-rule="evenodd" d="M735.113 452.408C735.309 451.876 735.424 451.944 735.3 450.752C735.283 450.592 735.257 450.396 735.223 450.237C734.84 448.492 717.041 425.138 715.632 423.174L581.933 241.016C580.097 238.366 572.209 229.285 572.238 226.609C572.271 223.495 580.463 215.039 582.388 211.955C590.427 199.08 630.629 146.29 644.189 127.467L726.486 15.5855C729.127 12.2417 736.1 3.97277 735.074 0.902785C732.187 -0.277491 712.999 -0.542629 710.603 1.93404L699.588 16.8547C687.633 34.1614 668.432 59.2424 655.702 76.6917L589.783 166.396C585.913 171.954 582.627 175.798 578.781 181.324C575.181 186.5 546.404 224.443 546.382 226.607C546.357 229.159 620.765 329.019 622.718 331.682L699.612 436.334C702.311 439.991 707.98 448.727 710.578 451.283C713.132 453.795 731.661 453.354 735.113 452.408V452.408Z" fill="#F2F2F2"/>
    <path fill-rule="evenodd" clip-rule="evenodd" d="M855.115 452.274C855.149 449.01 837.949 427.312 835.394 423.46C831.754 417.972 828.557 414.258 824.941 409.328L712.342 255.269C708.776 250.475 705.667 246.162 701.912 241.088C688.185 222.534 687.995 232.279 712.388 197.973C718.948 188.745 726.753 178.833 732.902 169.962C746.706 150.051 759.99 132.752 773.975 113.927C780.63 104.968 787.206 95.5657 794.372 85.7785C806.128 69.7249 825.269 44.7243 835.442 29.7729C838.928 24.6503 842.291 19.9875 845.827 15.5478C848.217 12.5477 855.565 3.89237 854.451 0.851272C850.982 -0.230214 845.49 0.388501 841.376 0.382724C829.286 0.366548 833.304 -1.10603 824.742 9.98151L797.448 47.183C782.692 67.3044 768.345 86.8265 753.561 107.026C739.929 125.653 722.441 148.376 709.573 166.751C702.513 176.832 695.069 187.017 687.637 196.731C684.792 200.45 666.313 224.631 666.598 227.129C666.83 229.159 746.238 336.225 754.062 346.992C768.701 367.132 783.175 386.644 797.984 406.811C805.522 417.079 812.662 426.56 820.001 436.672L830.96 451.639C833.302 453.742 850.825 453.29 855.116 452.274H855.115Z" fill="#F2F2F2"/>
    <path fill-rule="evenodd" clip-rule="evenodd" d="M794.775 452.371C794.918 451.942 795.066 451.872 794.949 450.746C794.75 448.821 776.789 425.079 775.658 423.523C734.928 367.427 692.752 311.437 652.568 255.349C649.205 250.654 645.484 245.745 642.189 241.115C629.021 222.612 627.772 232.251 652.649 197.925C659.594 188.343 666.282 179.29 673.186 169.93L714.255 113.895C717.726 109.131 720.878 104.503 724.496 99.5395C728.014 94.7121 731.244 90.965 734.693 85.7863C740.977 76.3533 748.526 66.8932 755.198 57.7584C761.816 48.6981 768.712 38.5868 775.631 29.6513C778.973 25.3352 782.74 19.7429 786.091 15.5018C788.588 12.3435 795.287 4.29123 794.928 0.791996C792.542 0.287072 773.482 -1.08618 770.656 2.29L695.528 104.708C667.017 141.937 637.946 183.281 609.612 221.612C607.262 224.79 605.573 226.429 608.346 230.177L645.897 281.084C666.006 309.855 690.044 340.179 710.391 368.875C727.674 393.251 746.253 417.587 763.914 441.704C772.333 453.201 770.312 452.848 778.329 452.866L794.773 452.371H794.775Z" fill="#F2F2F2"/>
    <path fill-rule="evenodd" clip-rule="evenodd" d="M543.103 1.07965C541.323 0.154151 542.101 0.472518 539.6 0.345998C519.458 -0.671362 523.414 1.49445 523.238 11.8229C523.065 22.093 523.276 32.582 523.276 42.8833V227.259C523.275 287.88 523.903 351.233 523.205 411.636C523.086 421.927 523.297 432.374 523.275 442.695C523.26 449.826 521.271 452.784 528.785 452.875C532.634 452.921 540.971 453.951 543.431 451.767C545.747 448.688 544.256 351.607 544.256 338.942C544.256 301.485 544.962 263.281 544.272 225.938C543.576 188.345 544.703 150.536 544.216 112.933C544.062 101.017 545.325 4.14329 543.104 1.07965H543.103Z" fill="#F2F2F2"/>
    <path fill-rule="evenodd" clip-rule="evenodd" d="M475.379 22.3971L475.509 451.782C477.727 453.043 493.879 453.787 495.71 451.62C497.373 449.653 496.431 370.247 496.467 358.767L496.4 19.0925C496.381 -2.89885 499.123 0.584206 484.559 0.372184C473.888 0.216779 475.335 -2.9254 475.379 22.3965V22.3971Z" fill="#F2F2F2"/>
    <path fill-rule="evenodd" clip-rule="evenodd" d="M427.77 0.821952C425.759 5.32699 426.744 104.501 426.898 118.22C427.338 157.554 426.908 197.152 426.908 236.513L426.905 444.019C426.875 451.308 425.163 452.979 432.886 452.838C450.354 452.52 447.822 455.966 447.822 438.07L447.759 226.599C447.736 206.445 448.947 3.77348 446.846 1.48283C444.845 -0.698053 428.879 0.515762 427.77 0.821952H427.77Z" fill="#F2F2F2"/>
    <path fill-rule="evenodd" clip-rule="evenodd" d="M931.642 20.9171H1244.19C1249.18 20.9171 1259.9 22.4943 1262.97 19.7063C1264.45 17.3162 1264.55 3.54342 1262.78 1.45209C1260.85 -0.591296 1229.66 0.378122 1224.74 0.378122L981.275 0.379307C964.541 0.379307 947.704 0.543377 930.972 0.376994C922.542 0.293225 886.472 -0.642708 880.936 0.792341C880.05 3.42789 879.889 14.1671 880.245 17.7085C880.719 22.4302 883.642 20.9177 894.754 20.9177C907.05 20.9177 919.355 20.9177 931.642 20.9177L931.642 20.9171Z" fill="#F2F2F2"/>
    <path fill-rule="evenodd" clip-rule="evenodd" d="M930.972 68.1284H1224.74C1231.06 68.1284 1259.15 69.1804 1262.92 67.334C1264.55 65.0544 1264.44 51.9234 1262.97 48.8985C1261.08 46.9603 1184.7 48.014 1173.77 47.9967C1078.07 47.843 980.564 48.8095 885.311 47.9828C879.501 47.9325 880.294 47.3484 880.27 58.0807C880.241 70.7518 876.896 68.1278 900.12 68.1278C910.405 68.1278 920.696 68.1278 930.972 68.1278V68.1284Z" fill="#F2F2F2"/>
    <path fill-rule="evenodd" clip-rule="evenodd" d="M1369.35 7.69482C1366.68 3.29435 1366.72 0.457202 1359.84 0.316239C1352.29 0.160255 1345.45 -0.896982 1346.31 3.23196L1494.62 251.066C1502.85 264.578 1511.21 279.208 1519.2 292.231C1523.56 299.343 1527.22 305.669 1531.57 313.133C1534.53 318.207 1534.11 319.878 1541.55 319.853C1548.15 319.831 1555.38 321.094 1554.7 317.52L1486.57 203.472C1484.45 200.016 1482.62 196.965 1480.55 193.529L1456.07 152.255C1447.35 139.349 1439.01 123.601 1431.11 110.751L1369.35 7.69595L1369.35 7.69482Z" fill="#F2F2F2"/>
    <path fill-rule="evenodd" clip-rule="evenodd" d="M328.555 452.973L330.382 451.947C330.114 450.691 330.701 452.021 329.959 450.338C329.313 448.87 329.558 449.713 328.954 448.983L329.618 451.387L328.555 452.973Z" fill="white"/>
</svg>
