<?xml version="1.0" encoding="UTF-8"?>
<!DOCTYPE svg PUBLIC "-//W3C//DTD SVG 1.1//EN" "http://www.w3.org/Graphics/SVG/1.1/DTD/svg11.dtd">
<!-- Creator: CorelDRAW 2019 (64-Bit) -->
<svg xmlns="http://www.w3.org/2000/svg" xml:space="preserve" width="420mm" height="297mm" version="1.1" style="shape-rendering:geometricPrecision; text-rendering:geometricPrecision; image-rendering:optimizeQuality; fill-rule:evenodd; clip-rule:evenodd"
viewBox="0 0 41988.4 29691.8"
 xmlns:xlink="http://www.w3.org/1999/xlink"
 xmlns:xodm="http://www.corel.com/coreldraw/odm/2003">
 <defs>
  <style type="text/css">
   <![CDATA[
    .fil0 {fill:none}
    .fil1 {fill:#0A4C29}
   ]]>
  </style>
 </defs>
 <g id="Layer_x0020_1">
  <metadata id="CorelCorpID_0Corel-Layer"/>
  <rect class="fil0" width="41988.4" height="29691.8"/>
  <g id="_1095763747856">
   <path class="fil1" d="M32857.99 16172.67c-50.18,-17.09 -80.49,-98.52 -112.51,-149.6 -133.91,-213.56 -164.95,-190.3 -72.59,-343.87l2603.31 -4407.51c41.03,-68.82 180.54,-260.97 171.63,-331.96 -63.28,-18.79 -236.26,-11 -308.57,-6.79 -96.96,130.52 -263.05,418.55 -343.38,567.13 -108.48,200.65 -228.35,384.53 -334.69,568.43l-1004.69 1706.92c-109.68,187.03 -217.4,392.73 -334.24,568.3 -135.73,203.94 -588.73,1066 -675.87,1131.51 -36.6,-9.75 -36.39,-18.27 -59.57,-55.1 -212.85,-337.91 -224.43,-255.16 -82.57,-510.35 55.6,-100.02 113.31,-196.03 170.44,-287.27 174.2,-278.21 325.88,-567.95 501.5,-848.23l330.51 -561.19c332.74,-590.24 669.59,-1121.88 1000.75,-1698.49 28.85,-50.25 310.86,-496.45 312.19,-546.54l-3.56 -19.71c-0.18,-5.33 -1.53,-6.88 -2.99,-10.05 -52.71,-16.63 -136.99,-8.19 -200.48,-8.48 -102.66,-0.48 -97.41,-0.65 -138.12,71.58l-446.14 754.7c-198.96,339.09 -400.11,669.66 -598.65,1013.58l-599 1013.65c-25.05,48.12 -558,984.48 -607.34,1002.6 -50.33,-32.99 -263.87,-424.17 -308.26,-500.99l-597.17 -1015.52c-104.92,-180.47 -196.94,-331.92 -296.59,-503.61 -301.62,-519.6 -604.35,-999.27 -899.45,-1525.16 -157.33,-280.38 -144.14,-314.55 -299.42,-311.74 -60.43,1.09 -139.68,-5.92 -189.47,8.99 -7.56,16.08 -6.12,-18.01 -7.36,30.77l1441.62 2460c92.68,160.66 194.29,321.23 289.87,488.08 213.1,372.04 383.99,651.13 581.58,985.02 306.07,517.2 570.75,985.32 875.47,1481.09 35.02,56.99 27.19,75.29 117.21,77.41 334.19,7.86 291.99,34.83 409.35,-175.58 184.23,-330.3 399.91,-655.67 580.98,-986.72 44.21,-80.81 96.5,-166.89 148.18,-251.75l436.32 -724.34c1.12,-4.39 4.69,-4.46 7.16,-6.54 24.28,103.63 10.55,421.74 10.55,553.53l0 1670.08c-0.04,237.53 -24.72,2154.18 12.81,2203.35 23.15,26.11 294.29,31.69 319.5,8.57 36.32,-68.71 13.59,-652.57 13.06,-782.04l-0.48 -3946.43c0.15,-99.51 -17.8,-303.37 19.6,-376.17l291.9 -497.51c28.88,-48.4 105.49,-216.21 157.53,-218.52 21.3,205.27 6.1,511.42 4.69,726.14 -1.59,243.99 -0.63,488.09 -0.28,732.11 0.72,482.06 -8.65,971.75 0.69,1452.74 6,308.84 -20.56,2851.92 14.5,2903.85 30.71,32.98 124.6,16.14 170.15,16.19 239.27,0.25 172.07,9.07 172.04,-483.54l0 -5765.23c0,-246.25 -19.26,-207.35 91.8,-388.8l269.53 -450.15c26.48,-45.25 51.39,-114.23 98.63,-135.64 45.28,160.06 -33.44,7148.14 19.69,7208.33 43.23,25.27 284.89,26.48 331.58,4.68 26.23,-23.04 17.08,-80.81 16.74,-118.52 -11.75,-1261.92 2.36,-2524.47 -2.27,-3786.35l0.5 -3431.68c0.04,-483.5 72.92,-484.28 -186.47,-484.07 -58.78,0.05 -115.98,-1.24 -174.66,3.05 -37.63,18.79 -537.88,904.52 -588.18,987.1 -71.74,117.8 -126.08,216.83 -190.99,323.92 -263.15,434.13 -510.71,874.71 -771.88,1309.55 -274.26,456.59 -515.02,872.82 -777.02,1316.52 -129.43,219.22 -265.29,433.01 -386.17,654.47 -61.94,113.51 -125.51,207.32 -194.44,331 -34.22,61.41 -156.26,289.99 -198.05,316.81z"/>
   <path class="fil1" d="M11253.86 18764.46l18.13 -27.46 -11.32 -41.6c-121,-241.76 -265.35,-472.38 -396.9,-717.13 -60.93,-113.39 -134.5,-247.6 -197.48,-362.73 -185.53,-339.13 -419.7,-734.88 -597.38,-1072.36l-296.04 -539.13c-31.72,-53.03 -87.71,-128.12 -86.43,-185.72 41.87,-27.88 182.37,-25.69 244.95,-38.99 64.96,-13.8 175.58,-48.42 232.08,-38.81 72.85,117.06 144.03,254.86 214.34,379.4 202.14,358.1 429.44,800.55 628.12,1133.29 90.6,151.74 810.73,1483.93 840.74,1501.58 72.24,11.83 302.15,11.95 374.01,-0.45 6.06,-57.59 -63.95,-159.18 -93.08,-210.24l-750.9 -1364.48c-232.65,-389.49 -514.93,-940.63 -752.92,-1363.2 -79.53,-141.2 -147.14,-182.98 -25.24,-237.97 282.47,-127.46 632.35,-406.53 814.09,-638.76 124.93,-159.64 209.48,-265.78 310.78,-467.64 308.49,-614.75 343.56,-1297.15 117.72,-1931.95 -118.52,-333.13 -359.26,-717.23 -616.42,-939.47 -149.16,-128.9 -384.43,-318.95 -564.73,-407.35 -631.48,-309.57 -1160.67,-262.67 -1878.76,-262.97 -518.32,-0.23 -1036.69,-1.65 -1554.93,-1.38 -26.02,0.02 -1515.55,-13.12 -1547.11,13.03 -44.99,56.75 -18,820.82 -17.94,964.25 0.11,327.69 0.99,655.96 -2.11,983.76 -6.14,649.98 2.07,1305.43 2.04,1956.06 -0.03,652.15 0,1303.99 0,1956.06 0,216.85 -25.03,1889.5 12.95,1941.13 32.52,31.14 116.21,17.98 168.74,18.03 179.85,0.13 176.62,15.11 175.22,-128.83 -0.37,-38.17 -0.21,-76.33 -0.21,-114.48 0,-76.27 0,-152.53 0,-228.78l-0.33 -3271.54c-3.46,-624.79 -1.99,-1251.15 -0.42,-1875.99 0.52,-203.17 -19.6,-1797.61 14.3,-1848.11 28.57,-21.82 3063.05,-7.53 3367.2,-7.74 582.25,-0.42 923.42,106.09 1317.8,366.08 740.91,488.49 1108.74,1486.45 805.77,2356.22 -65.91,189.24 -171.93,431.69 -282.39,563.8 -132.09,158.01 -207.77,290.9 -402.83,431.97 -388.87,281.24 -709.2,436.54 -1232.54,448.08 -226.61,5.01 -1578.78,-25.2 -1666.01,14.79 -23.25,57.53 -30.43,289.03 10.32,326.86 52.57,43.56 247.22,5.33 328.89,16.66 66.27,9.17 109.7,121.36 144.34,184.44 79.84,145.4 155.02,285.46 234.73,428.41l1188.15 2163.99c72.73,120.05 66.31,170.04 158.78,174.54 45.59,2.22 320.38,21.67 325.66,-19.65l1.91 -25.09c-1.11,-8.03 -5.81,-18.25 -8.35,-23.72l-1568.09 -2827.4c-30.49,-91.48 103.12,-56.24 312.3,-56.54 146.08,-0.2 179.28,-27.35 238.41,79.44l454.98 825.33c84.23,155.5 1083.01,1972.68 1137.16,2045.54l356.26 4.97z"/>
   <path class="fil1" d="M24097.66 17293.94c3.85,-459.69 -19.39,-4269.38 9.8,-4358.02 56.14,-16.65 398.28,-18.8 454.89,2.42 41.99,138.68 -32.87,5757.86 21.82,5811.24 50.71,25.63 261.81,19.65 331.17,5.36 29.94,-86.73 9.34,-1247.91 10.08,-1449.57l0.01 -4209.53c-0.12,-54.82 -10.09,-125.24 17.16,-160.34 64.1,-50.29 2212.97,39.62 2242.95,-30.25l10.26 -27.23c1.74,-8.63 1.92,-34.73 1.92,-44.66 0.03,-26.57 -0.67,-53.92 -0.72,-80.69 -0.14,-54.86 6.1,-112.61 -10.38,-164.93 -84.47,-38.07 -5013.14,-11.12 -5732.14,-15.85 -189.94,-1.25 -381.43,1.15 -571.66,1.15 -173.33,0 -217.84,-24.31 -224.28,53.91 -2.8,34.17 -4.76,261.59 4.5,278.56 25.38,46.57 207.67,21.5 265.51,21.5 296.88,0 1963.54,-12.89 1989.4,12.07 43.77,42.24 -27.96,5749 22.91,5806.92 22.63,25.77 305.52,25.88 330.18,-1.65 24.08,-26.85 13.08,-3809.74 11.16,-4367.35 -0.6,-172.65 -22.04,-1388.42 13.95,-1440.05 41.21,-22.74 370.52,-15.41 435.98,-3.63 24.52,90.87 9.59,585.87 9.04,723.02 -2.98,736.62 -14.98,5056.01 13.7,5087.53 27.15,23.2 32.14,17.4 76.99,18.09 154.89,2.39 251.48,22.23 264.28,-50.15l1.54 -1417.88z"/>
   <path class="fil1" d="M27735.86 18745.55c55.07,31.44 159.89,17.08 228.85,16.58 123.08,-0.91 122.91,3.7 121.77,-118.05 -1.46,-156.07 -0.93,-313.21 -0.34,-469.33l-0.99 -6520.9c-0.34,-115.49 15.52,-85.53 28.02,-99.2 45.11,41.68 316.01,509.94 369.47,599.65 97.32,163.34 73.67,181.58 72.48,403.92 -0.84,156.42 -0.89,312.61 -0.02,469 9.7,1744.45 0.71,3513.38 0.67,5261.92 0,80.07 0,160.13 0,240.2 0,38.24 0.01,76.39 -0.37,114.63 -0.49,48.64 -5.79,82.06 15.86,102.58 38.27,25.21 292.78,27 327.6,-2.99 30.48,-31.65 16.09,-666.56 15.11,-717.53 -4.65,-241.52 -2.74,-490.21 -0.76,-732.09 4.88,-599.76 -17.53,-4301.38 11.75,-4358.36 45.45,18.6 61.72,71.35 88.31,117.82l351.48 619.59c31.17,127.9 -29.89,5023.39 16.61,5073.7 50.27,27.16 286.86,26.5 335.44,0 47.51,-48.52 -18.39,-4281.5 19.25,-4416.24 42.77,7.28 43.05,24.67 63.95,63.71 13.27,24.74 28.55,50.59 41.72,72.53l258.38 438.86c120.05,193.37 231.43,408.24 346.93,591.45 166.21,263.67 358.82,628.23 522.38,883.85 50.02,78.17 34.36,79.99 150.49,79.33 69.34,-0.4 156.69,6.02 222.9,-8.15 7.58,-51.8 -356.11,-629.86 -408.61,-722.42 -330.66,-583.08 -717.57,-1208.71 -1062.83,-1796.12l-1701.13 -2873.86c-51.86,-84.19 -40.06,-128.34 -159.3,-129.91 -68.01,-0.89 -213.71,-14.87 -263.61,12.14 -41.52,43.99 -18.82,840.36 -18.74,964.34 0.17,327.67 0.42,655.95 -2.06,983.76 -4.92,650.56 2.02,1305.07 1.99,1956.06 0,170.93 -13.4,3834.99 7.37,3899.54z"/>
   <path class="fil1" d="M6494.06 11768.09c-27.53,103.35 -3.47,6103.47 -7.86,6852.85 -0.93,156.91 -36.41,140.29 248.45,140.26 138.81,-0.01 110.14,7.01 110.14,-323.36l0 -6257.11c-0.06,-102.19 16.23,-78.38 292.88,-77.75l2363.86 0c531.92,-0.43 1017.31,309.99 1184.51,733.17 75.31,190.6 124.36,287.01 124.67,534.24 0.9,685.61 -555.45,1269.49 -1309.18,1269.49l-1337.71 0c-273.39,0.14 -235.73,-43.66 -235.73,251.89 0,48.32 5.65,59.74 20.64,88.61 372.83,12.52 1606.05,21.35 1867.09,-17.79 715.25,-107.24 1342.8,-746.61 1344.92,-1592.2 1.57,-623.67 -339.49,-1063.68 -653.01,-1304.08 -169.02,-129.6 -439.51,-239.4 -680.84,-289.2 -210.3,-43.4 -1467.86,-21.96 -1834.57,-22.47 -203.15,-0.28 -1422.61,-14.51 -1498.26,13.46z"/>
   <path class="fil1" d="M7660.05 13267.43c0.04,-68.57 0.86,-137.4 0.22,-205.95 -0.77,-80.72 -24.01,-134.44 57.64,-134.44l1316.27 0c265.1,-0.45 621.8,-39.51 784.33,103.38 80.21,70.52 152.21,147.43 164.35,305.7 21.11,275.47 -195.01,474.2 -469.92,474.18 -294.26,-0.18 -1354.81,-12.21 -1520.75,-0.63 -66.58,4.64 -64.12,35.74 -64.12,98.36 0,219.4 -24.25,256.64 74.86,261.1 201.62,9.09 636.31,-0.92 858.31,-0.94 331.56,0 796.83,47.72 1049.35,-91.82 578.95,-319.94 574.85,-1094.42 -2.4,-1410.92 -248.91,-136.48 -715.24,-92.37 -1035.52,-92.37 -160.16,0 -1533.71,-9.72 -1552.48,8.04 -28.84,61.43 -14.26,313.59 -14.25,400.37 -0.66,1870.28 8.69,3760.7 -0.05,5627.98 -0.36,75.61 -22.79,151.76 57.58,151.76 339.72,0 298.92,21.9 297.7,-128.78l-0.16 -652.13c0.31,-917.5 10.56,-1900.09 0,-2813.98l-0.97 -1898.88z"/>
   <path class="fil1" d="M18184.35 18754.68c3.33,-9.21 5.29,-8.03 3.18,-28.67 -0.29,-2.76 -0.73,-6.16 -1.32,-8.92 -6.52,-30.19 -309.94,-434.44 -333.96,-468.44l-2279.13 -3153.06c-31.3,-45.88 -165.75,-203.06 -165.27,-249.38 0.57,-53.9 140.21,-200.27 173.04,-253.66 137.03,-222.86 822.35,-1136.62 1053.5,-1462.44l1402.89 -1936.62c45.02,-57.88 163.88,-201.01 146.39,-254.15 -49.2,-20.43 -376.29,-25.02 -417.15,17.85l-187.77 258.27c-203.79,299.57 -531.1,733.71 -748.11,1035.75l-1123.69 1552.74c-65.97,96.21 -122,162.74 -187.55,258.4 -61.37,89.59 -551.93,746.37 -552.3,783.82 -0.43,44.17 1267.98,1772.71 1301.28,1818.79l1310.78 1811.48c46.02,63.31 142.65,214.52 186.95,258.76 43.53,43.48 359.38,35.86 418.24,19.47z"/>
   <path class="fil1" d="M20229.99 18752.32c0.57,-56.49 -292.63,-432.07 -336.19,-498.75 -62.05,-94.99 -116.54,-159.28 -178.18,-244.61l-1919.45 -2666.7c-60.79,-82.97 -113.79,-157.63 -177.79,-245.46 -234.01,-321.16 -237.25,-152.47 178.57,-746.3 111.84,-159.73 244.89,-331.31 349.71,-484.86 235.31,-344.65 461.76,-644.08 700.15,-969.93 113.44,-155.08 225.55,-317.83 347.71,-487.24 200.39,-277.88 526.69,-710.63 700.11,-969.43 59.41,-88.67 116.74,-169.38 177.02,-246.23 40.74,-51.93 166,-201.75 147.02,-254.39 -59.14,-18.72 -152.77,-8.01 -222.9,-8.11 -206.09,-0.28 -137.59,-25.77 -283.54,166.15l-465.28 643.94c-251.54,348.29 -496.11,686.21 -748.13,1035.86 -232.38,322.41 -530.5,715.74 -749.85,1033.8 -120.35,174.5 -247.25,350.8 -373.94,518.95 -48.5,64.37 -363.51,482.92 -358.64,526.17 3.95,35.13 1357.6,1888.4 1490.98,2074.76 249.54,348.63 496.28,686.37 748.71,1035.45 128.51,177.73 250.21,341.84 375.33,516.88l186.81 259.06c39.93,36.4 338.63,28.58 411.78,10.99z"/>
   <path class="fil1" d="M19201.39 18754.04c2.44,-7.43 4.97,-8.65 2.98,-28.14 -3.4,-33.31 -309.57,-444.28 -328.85,-471.22 -694.32,-970.99 -1413.28,-1940.14 -2098.29,-2911 -57.33,-81.27 -120.76,-166.24 -176.92,-246.38 -224.48,-320.29 -245.77,-153.44 178.31,-747.61 118.38,-165.85 232.4,-322.56 350.09,-484.57l700.08 -969.95c59.18,-82.45 112.91,-162.56 174.58,-248.48 59.97,-83.56 115.04,-148.42 173.83,-238.06 107.12,-163.28 235.8,-327.03 349.54,-485.15 112.82,-156.83 230.37,-331.85 348.31,-486.52 56.98,-74.71 121.19,-171.51 178.32,-244.92 42.56,-54.67 156.76,-194.05 150.64,-254.62 -40.68,-8.74 -365.59,-32.51 -413.76,25.93l-1280.69 1772.8c-486.02,644.42 -981.59,1360.06 -1464.59,2023.55 -40.06,55.02 -68.84,83.38 -21.58,148.27l640.12 881.16c342.79,498.02 752.57,1022.92 1099.41,1519.63 294.63,421.93 611.34,843.18 912.39,1260.63 143.52,199.01 109.07,192.9 245.74,193.21l280.32 -8.56z"/>
   <path class="fil1" d="M14911.2 10942.39c-30.35,-16.02 -17.09,-10.51 -59.72,-12.7 -343.35,-17.61 -275.92,19.88 -278.91,198.66 -2.96,177.77 0.65,359.33 0.65,537.64l0 3191.46c-0.03,1049.32 10.68,2145.92 -1.21,3191.47 -2.03,178.14 1.57,358.97 1.18,537.62 -0.25,123.43 -34.16,174.64 93.94,176.21 65.6,0.8 207.72,18.62 249.66,-19.18 39.48,-53.29 14.07,-1733.72 14.07,-1952.94 0,-648.37 12.03,-1309.66 0.26,-1956.06 -11.85,-650.71 7.36,-1305.16 -0.95,-1956.06 -2.62,-206.26 18.9,-1883.09 -18.96,-1936.12z"/>
   <path class="fil1" d="M13756.74 11311.38l2.22 7432.44c37.81,21.83 313.14,34.71 344.36,-2.79 28.34,-34.06 12.29,-1408.54 12.89,-1607.24l-1.13 -5879.61c-0.32,-380.66 46.41,-320.37 -201.85,-324.04 -181.91,-2.69 -157.25,-57.08 -156.49,381.23z"/>
   <path class="fil1" d="M12945.16 10937.91c-34.29,77.98 -17.49,1794.64 -14.88,2032.11 7.5,680.84 0.17,1366.26 0.17,2047.58l-0.04 3591.84c-0.52,126.17 -29.7,155.09 101.96,152.65 297.76,-5.51 254.61,54.15 254.61,-255.62l-1.08 -3660.46c-0.39,-348.87 20.25,-3857.01 -15.57,-3896.66 -34.1,-37.75 -306.27,-16.74 -325.18,-11.44z"/>
   <path class="fil1" d="M21534.51 11285.78l5327.94 0c85.1,0 267.76,27.3 320.13,-20.96 25.26,-41.37 27,-279.77 -3.2,-315.97 -32.88,-35.37 -564.7,-18.59 -648.5,-18.59l-4150.29 0.02c-285.25,0 -572.27,2.84 -857.5,-0.04 -143.7,-1.45 -758.58,-17.65 -852.94,7.19 -15.1,45.62 -17.85,231.51 -11.79,292.81 8.08,81.73 57.92,55.55 247.33,55.55 209.62,0 419.38,0 628.83,0z"/>
   <path class="fil1" d="M21523.09 12102.98l5007.8 0c107.73,0 586.57,18.21 650.79,-13.75 27.75,-39.46 26.01,-266.75 0.91,-319.11 -32.32,-33.55 -1334.31,-15.31 -1520.63,-15.61 -1631.32,-2.66 -3293.49,14.07 -4917.25,-0.24 -99.04,-0.87 -85.52,-10.98 -85.93,174.79 -0.48,219.33 -57.51,173.91 338.38,173.91 175.33,0 350.75,0 525.93,0z"/>
   <path class="fil1" d="M28996.08 11056.91c-45.57,-76.17 -44.99,-125.28 -162.12,-127.72 -128.71,-2.7 -245.38,-21 -230.8,50.47l2528.21 4289.89c140.44,233.89 282.83,487.12 419.04,712.54 74.39,123.11 136.81,232.61 210.93,361.81 50.37,87.83 43.35,116.75 170.15,116.31 112.53,-0.38 235.65,21.49 224.06,-40.38l-1161.32 -1974.12c-36.2,-59.82 -67.4,-112.62 -102.58,-172.1l-417.4 -714.43c-148.53,-223.4 -290.8,-495.99 -425.5,-718.42l-1052.68 -1783.83z"/>
   <path class="fil1" d="M11253.86 18764.46l31.15 -17.77c-4.57,-21.73 5.44,1.29 -7.21,-27.84 -11.02,-25.42 -6.83,-10.83 -17.13,-23.45l11.32 41.6 -18.13 27.46z"/>
  </g>
 </g>
</svg>
